<?xml version="1.0" encoding="utf-8"?>
<!-- Generator: Adobe Illustrator 16.0.0, SVG Export Plug-In . SVG Version: 6.00 Build 0)  -->
<!DOCTYPE svg PUBLIC "-//W3C//DTD SVG 1.1//EN" "http://www.w3.org/Graphics/SVG/1.1/DTD/svg11.dtd">
<svg version="1.1" id="Layer_1" xmlns="http://www.w3.org/2000/svg" xmlns:xlink="http://www.w3.org/1999/xlink" x="0px" y="0px"
	 width="532.668px" height="298.569px" viewBox="83.666 130.704 532.668 298.569"
	 enable-background="new 83.666 130.704 532.668 298.569" xml:space="preserve">
<path d="M115.88,130.71c-8.234,0-16.59,3.203-22.836,9.449c-12.504,12.504-12.504,33.18,0,45.684l233.98,233.98
	c6.039,6.039,14.559,9.449,22.836,9.449c8.199,0,16.371-2.984,22.836-9.449l233.659-233.68c13.091-12.32,13.259-33.484,0.754-45.988
	c-12.504-12.504-33.18-12.504-45.684,0l-0.008,0.008l-211.14,211.56l-211.57-211.57c-6.258-6.258-14.613-9.449-22.836-9.449
	L115.88,130.71z"/>
</svg>
